<?xml version="1.0" encoding="UTF-8" standalone="no"?>
<!-- Created with Inkscape (http://www.inkscape.org/) -->

<svg
   width="44.703747mm"
   height="42.310482mm"
   viewBox="0 0 44.703747 42.310482"
   version="1.1"
   id="svg5"
   xml:space="preserve"
   inkscape:version="1.2.2 (b0a8486541, 2022-12-01)"
   sodipodi:docname="sogh.svg"
   xmlns:inkscape="http://www.inkscape.org/namespaces/inkscape"
   xmlns:sodipodi="http://sodipodi.sourceforge.net/DTD/sodipodi-0.dtd"
   xmlns="http://www.w3.org/2000/svg"
   xmlns:svg="http://www.w3.org/2000/svg"><sodipodi:namedview
     id="namedview7"
     pagecolor="#505050"
     bordercolor="#eeeeee"
     borderopacity="1"
     inkscape:showpageshadow="0"
     inkscape:pageopacity="0"
     inkscape:pagecheckerboard="0"
     inkscape:deskcolor="#505050"
     inkscape:document-units="mm"
     showgrid="false"
     inkscape:zoom="0.95497112"
     inkscape:cx="290.06113"
     inkscape:cy="-87.960775"
     inkscape:window-width="1881"
     inkscape:window-height="979"
     inkscape:window-x="35"
     inkscape:window-y="32"
     inkscape:window-maximized="1"
     inkscape:current-layer="layer1" /><defs
     id="defs2" /><g
     inkscape:label="Layer 1"
     inkscape:groupmode="layer"
     id="layer1"
     transform="translate(-40.33854,-161.40623)"><path
       style="fill:#000000;stroke-width:1"
       d="m 41.199281,203.35624 c -0.169096,-0.19806 -0.381265,-0.57951 -0.471487,-0.84766 -0.398474,-1.18432 -0.389236,-0.70927 -0.389236,-20.01571 V 164.3949 l 0.181919,-0.89902 c 0.100054,-0.49446 0.343383,-1.16691 0.540731,-1.49433 l 0.358814,-0.59532 h 21.234567 21.234566 l 0.358815,0.59532 c 0.478656,0.79414 0.698012,1.93904 0.762173,3.97811 0.02842,0.90436 0.04026,9.02616 0.02625,18.04845 -0.02755,17.72845 -0.01376,17.16907 -0.45501,18.48047 -0.425248,1.26389 0.593735,1.20776 -21.926797,1.20776 -17.63406,0 -21.198942,-0.0598 -21.455304,-0.3601 z"
       id="path302"
       inkscape:export-filename="sogh.png"
       inkscape:export-xdpi="48.029999"
       inkscape:export-ydpi="48.029999" /><ellipse
       style="fill:#000000;stroke-width:202.296"
       id="path553"
       cx="62.506325"
       cy="183.24005"
       rx="15.131191"
       ry="14.683953" /><path
       style="fill:#ffffff;stroke-width:1"
       d="m 58.540934,196.29777 0.07838,-1.48867 -1.603285,-0.11597 c -1.967151,-0.14229 -2.785931,-0.69333 -3.799819,-2.5573 -0.411641,-0.75677 -1.036719,-1.56484 -1.389063,-1.7957 -0.7736,-0.50689 -0.826785,-0.88806 -0.123908,-0.88806 0.906,0 1.861036,0.59333 2.425742,1.50705 1.174529,1.90043 4.086914,2.30388 4.686754,0.64925 0.13979,-0.3856 0.338611,-0.90946 0.441825,-1.16412 0.148738,-0.36698 0.0515,-0.46302 -0.468839,-0.46302 -0.983387,0 -2.818953,-0.71512 -3.845682,-1.49824 -2.132638,-1.62664 -2.952189,-5.98986 -1.632514,-8.69136 0.476841,-0.97614 0.646984,-1.76756 0.653464,-3.03956 0.0048,-0.94589 0.103261,-1.86862 0.218762,-2.05052 0.340132,-0.53568 1.348012,-0.38331 2.914216,0.44057 1.428811,0.75159 1.514457,0.76383 3.353221,0.47922 1.351415,-0.20918 2.440578,-0.21232 3.837583,-0.0111 1.890302,0.27233 1.997229,0.25751 3.457805,-0.47922 2.61011,-1.31657 3.141774,-0.99134 3.082431,1.88559 -0.02199,1.06547 0.150381,1.82571 0.643564,2.8386 0.911667,1.87236 0.829281,4.83801 -0.189621,6.82591 -0.788946,1.53925 -2.786156,2.90701 -4.653765,3.18708 -1.164756,0.17466 -1.425779,0.52929 -0.828908,1.12616 0.204518,0.20452 0.376394,1.52552 0.463021,3.55865 0.131795,3.09323 0.163309,3.23702 0.727025,3.31715 0.854625,0.12147 4.145288,-1.69607 5.786578,-3.19612 5.043739,-4.60969 6.337393,-12.05631 3.203821,-18.44205 -0.983416,-2.00405 -3.628983,-4.83239 -5.579271,-5.96473 -6.280376,-3.64638 -13.84494,-2.70032 -18.817054,2.35335 -3.101953,3.15283 -4.446259,6.38768 -4.465707,10.746 -0.01974,4.42357 1.621869,8.18337 4.900036,11.22263 1.901685,1.7631 4.722771,3.35158 5.783379,3.25647 0.609582,-0.0547 0.667605,-0.17606 0.739834,-1.54798 z"
       id="path467" /></g></svg>
